<?xml version="1.0" standalone="no"?>
<!DOCTYPE svg PUBLIC "-//W3C//DTD SVG 20010904//EN"
 "http://www.w3.org/TR/2001/REC-SVG-20010904/DTD/svg10.dtd">
<svg version="1.0" xmlns="http://www.w3.org/2000/svg"
 width="1250.000000pt" height="1250.000000pt" viewBox="0 0 1250.000000 1250.000000"
 preserveAspectRatio="xMidYMid meet">
<metadata>
Created by potrace 1.14, written by Peter Selinger 2001-2017
</metadata>
<g transform="translate(0.000000,1250.000000) scale(0.100000,-0.100000)"
fill="#000000" stroke="none">
<path d="M0 6250 l0 -6250 6250 0 6250 0 0 6250 0 6250 -6250 0 -6250 0 0
-6250z m2863 2934 c737 -328 828 -371 824 -389 -4 -17 -720 -1636 -733 -1657
-3 -4 33 -26 78 -49 180 -90 331 -203 489 -365 108 -112 166 -186 241 -306
289 -465 355 -1061 175 -1575 -25 -72 -622 -1433 -748 -1706 -10 -21 -18 -27
-33 -23 -22 6 -1646 733 -1653 740 -3 2 318 732 713 1623 394 890 719 1626
721 1635 4 13 -15 27 -78 59 -299 149 -573 410 -752 714 -97 165 -184 408
-223 620 -26 142 -26 470 0 610 33 182 121 454 143 442 5 -2 381 -170 836
-373z m5341 80 c1306 -146 2386 -1102 2706 -2394 68 -275 84 -424 85 -745 0
-296 -8 -396 -51 -617 -96 -499 -317 -978 -634 -1378 -108 -136 -376 -405
-510 -510 -754 -592 -1712 -810 -2650 -604 -153 34 -436 129 -588 198 -666
299 -1208 820 -1536 1473 -336 672 -424 1451 -245 2183 220 899 821 1658 1644
2075 552 279 1160 388 1779 319z"/>
<path d="M7710 7689 c-268 -25 -514 -113 -750 -270 -127 -84 -325 -282 -409
-409 -198 -298 -295 -637 -277 -971 46 -875 770 -1541 1636 -1506 403 16 757
172 1046 461 228 228 371 497 436 819 33 160 32 453 -1 607 -97 455 -351 816
-741 1052 -274 166 -622 246 -940 217z"/>
</g>
</svg>
